@startuml
scale max 4096 width
skinparam nodesep 100
hide circle

class gradering {
  <b>gradering</b>
  <b>graderingsdato</b>
  <b>gradertAv</b>
  nedgraderingsdato
  nedgradertAv
}

class part {
  partID
  <b>partNavn</b>
  <b>partRolle</b>
  postadresse
  postnummer
  poststed
  land
  epostadresse
  telefonnummer
  kontaktperson
  virksomhetsspesifikkeMetadata
}

class skjerming {
  <b>tilgangsrestriksjon</b>
  <b>skjermingshjemmel</b>
  <b>skjermingMetadata</b>
  skjermingDokument
  skjermingsvarighet
  skjermingOpphoererDato
}

class merknad {
  <b>merkandstekst</b>
  merknadstype
  <b>merknadsdato</b>
  <b>merknadRegistrertAv</b>
}

class kassasjon {
  <b>kassasjonsvedtak</b>
  kassasjonshjemmel
  <b>bevaringstid</b>
  <b>kassasjonsdato</b>
}

class kryssreferanse {
  referanseTilKlasse
  referanseTilMappe
  referanseTilRegistrering
}

class elektroniskSignatur {
  <b>elektroniskSignaturSikkerhetsnivaa</b>
  <b>elektroniskSignaturVerifisert</b>
  <b>verifisertDato</b>
  <b>verifisertAv</b>
}

class registrering {
  <b>systemID</b>
  <b>opprettetDato</b>
  <b>opprettetAv</b>
  <b>arkivertDato</b>
  <b>arkivertAv</b>
  referanseArkivdel
  registreringsID
  <b>tittel</b>
  offentligTittel
  beskrivelse
  noekkelord
  forfatter
  dokumentmedium
  oppbevaringssted
  virksomhetsspesifikkeMetadata
}

class korrespondansepart {
  <b>korrespondanseparttype</b>
  <b>korrespondansepartNavn</b>
  postadresse
  postnummer
  poststed
  land
  epostadresse
  telefonnummer
  kontaktperson
  administrativEnhet
  saksbehandler
}

class moeteregistrering {
  <b>moeteregistreringstype</b>
  moetesakstype
  moeteregistreringsstatus
  <b>administrativEnhet</b>
  <b>saksbehandler</b>
  referanseTilMoeteregistrering
  referanseFraMoeteregistrering
}

class journalpost {
  <b>journalaar</b>
  <b>journalsekvensnummer</b>
  <b>journalposttype</b>
  <b>journalstatus</b>
  <b>journaldato</b>
  dokumentetsDato
  mottattDato
  sendtDato
  forfallsdato
  offentlighetsvurdertDato
  antallVedlegg
  utlaantDato
  utlaantTil
  journalenhet
}

class .arkivnotat {
  dokumentetsDato
  mottattDato
  sendtDato
  forfallsdato
  offentlighetsvurdertDato
  antallVedlegg
  utlaantDato
  utlaantTil
}

class presedens {
  <b>presedensDato</b>
  <b>opprettetDato</b>
  <b>opprettetAv</b>
  avsluttetDato
  avsluttetAv
  <b>tittel</b>
  beskrivelse
  presedensHjemmel
  <b>rettskildefaktor</b>
  presedensGodkjentDato
  presedensGodkjentAv
  presedensstatus
}

class avskrivning {
  <b>avskrivningsdato</b>
  <b>avskrevetAv</b>
  <b>avskrivningsmaate</b>
  referanseAvskrivesAvJournalpost
}

class dokumentflyt {
  <b>flytTil</b>
  <b>flytFra</b>
  <b>flytMottattDato</b>
  <b>flytSendtDato</b>
  <b>flytStatus</b>
  flytMerknad
}

class mappe
class klasse
class arkivdel
class dokumentbeskrivelse

mappe "1" o--> "0..*" registrering
klasse "1" o--> "0..*" registrering
arkivdel "1" o--> "0..*" registrering
registrering "1..*" o-> "0..*" dokumentbeskrivelse
registrering "0..*" o--> "0..*" korrespondansepart

gradering "0..1" <--o "0..*" registrering
part "0..*" <--o "0..*" registrering
skjerming "0..1" <--o "0..*" registrering
merknad "0..1" <--o "0..*" registrering
registrering "0..*" o--> "0..1" kassasjon
registrering "0..*" o--> "0..1" kryssreferanse
registrering "0..*" o--> "0..1" elektroniskSignatur

registrering <-- journalpost
registrering <-- arkivnotat
registrering <-- moeteregistrering

journalpost "0..*" o--> "0..*" presedens
avskrivning "0..*" <-o "1..*" journalpost
arkivnotat "1" o--> "0..*" dokumentflyt
dokumentflyt "0..*" <--o "1" journalpost

@enduml
