@startuml
scale max 4096 width
skinparam nodesep 100
hide circle

class klasse
class arkivdel
class mappe
class registrering
class dokumentbeskrivelse
class skjerming {
  <b>tilgangsrestriksjon</b>
  <b>skjermingshjemmel</b>
  <b>skjermingMetadata</b>
  skjermingDokument
  skjermingsvarighet
  skjermingOpphoererDato
}

klasse "0..1" o--> "0..*" mappe
arkivdel "1..*" o--> "0..*" mappe
mappe "1" o--> "0..*" registrering
registrering "1" o--> "0..*" dokumentbeskrivelse

klasse "0..*" o-> "0..1" skjerming
arkivdel "0..*" o-> "0..1" skjerming
arkivdel -[hidden]- klasse
mappe "0..*" o-> "0..1" skjerming
registrering "0..*" o-> "0..1" skjerming
dokumentbeskrivelse "0..*" o-> "0..1" skjerming
@enduml
