@startuml
scale max 4096 width
skinparam nodesep 100
hide circle

class gradering {
  <b>gradering</b>
  <b>graderingsdato</b>
  <b>gradertAv</b>
  nedgraderingsdato
  nedgradertAv
}

class skjerming {
  <b>tilgangsrestriksjon</b>
  <b>skjermingshjemmel</b>
  <b>skjermingMetadata</b>
  skjermingDokument
  skjermingsvarighet
  skjermingOpphoererDato
}

class kassasjon {
  <b>kassasjonsvedtak</b>
  kassasjonshjemmel
  <b>bevaringstid</b>
  <b>kassasjonsdato</b>
}

class part {
  partID
  <b>partNavn</b>
  <b>partRolle</b>
  postadresse
  postnummer
  poststed
  land
  epostadresse
  telefonnummer
  kontaktperson
  virksomhetsspesifikkeMetadata
}

class kryssreferanse {
  referanseTilKlasse
  referanseTilMappe
  referanseTilRegistrering
}

class merknad {
  <b>merkandstekst</b>
  merknadstype
  <b>merknadsdato</b>
  <b>merknadRegistrertAv</b>
}

class mappe {
  <b>systemID</b>
  <b>mappeID</b>
  <b>tittel</b>
  offentligTittel
  beskrivelse
  noekkelord
  dokumentmedium
  oppbevaringssted
  <b>opprettetDato</b>
  <b>opprettetAv</b>
  <b>avsluttetDato</b>
  <b>avsluttetAv</b>
  referanseArkivdel
  virksomhetsspesifikkeMetadata
}

class moetedeltager {
  <b>moetedeltagerNavn</b>
  moetedeltagerFunksjon
}

class moetemappe {
  <b>moetenummer</b>
  <b>utvalg</b>
  <b>moetedato</b>
  moetested
  referanseForrigeMoete
  referanseNesteMoete
}

class saksmappe {
  <b>saksaar</b>
  <b>sakssekvensnummer</b>
  <b>saksdato</b>
  <b>administrativEnhet</b>
  <b>saksansvarlig</b>
  journalenhet
  <b>saksstatus</b>
  utlaantDato
  utlaantTil
  referanseSekdundaerKlassifikasjon
}

class presedens {
  <b>presedensDato</b>
  <b>opprettetDato</b>
  <b>opprettetAv</b>
  avsluttetDato
  avsluttetAv
  <b>tittel</b>
  beskrivelse
  presedensHjemmel
  <b>rettskildefaktor</b>
  presedensGodkjentDato
  presedensGodkjentAv
  presedensstatus
}

class arkivdel
class klasse
class registrering

arkivdel "1" o--> "0..*" mappe
klasse "0..1" o--> "0..*" mappe

gradering "0..1" <--o "0..*" mappe
skjerming "0..1" <-o "0..*" mappe
kassasjon "0..1" <-o "0..*" mappe
part "0..*" <--o "0..*" mappe
mappe "0..1" o--> "0..1" kryssreferanse
mappe "0..*" o--> "0..1" merknad

mappe "0..1" o-> "0..*" mappe : undermappe
registrering "0..*" <--o "0..1" mappe
constraint on links: enten/eller

moetedeltager "0..*" <--o "1..*" moetemappe
mappe <-- moetemappe
mappe <-- saksmappe
saksmappe "0..*" o-> "0..*" presedens
@enduml
